<?xml version="1.0" encoding="UTF-8" standalone="yes"?>
<svg version="1.2" width="834px" height="834px" fill-rule="evenodd" baseProfile="tiny-ps" xmlns="http://www.w3.org/2000/svg">
  <title>bimi-svg-tiny-12-ps</title>
  <g>
    <path fill="#3cb6a5" d="M -0.5,-0.5 C 277.5,-0.5 555.5,-0.5 833.5,-0.5C 833.5,277.5 833.5,555.5 833.5,833.5C 555.5,833.5 277.5,833.5 -0.5,833.5C -0.5,555.5 -0.5,277.5 -0.5,-0.5 Z"/>
  </g>
  <g>
    <path fill="#fefefe" d="M 437.5,230.5 C 453.238,230.282 464.405,237.282 471,251.5C 472.471,292.127 472.971,332.794 472.5,373.5C 488.17,373.333 503.837,373.5 519.5,374C 541.274,380.49 549.774,394.99 545,417.5C 522.395,449.714 499.061,481.38 475,512.5C 455.667,539.167 436.333,565.833 417,592.5C 401.241,606.778 385.241,607.111 369,593.5C 365.57,588.54 362.903,583.207 361,577.5C 360.5,538.835 360.333,500.168 360.5,461.5C 345.163,461.667 329.83,461.5 314.5,461C 304.359,459.189 296.526,454.022 291,445.5C 285.525,434.962 285.192,424.295 290,413.5C 331.903,357.37 373.57,301.036 415,244.5C 420.83,236.85 428.33,232.183 437.5,230.5 Z"/>
  </g>
</svg>