<?xml version="1.0" standalone="no"?>
<!DOCTYPE svg PUBLIC "-//W3C//DTD SVG 20010904//EN"
 "http://www.w3.org/TR/2001/REC-SVG-20010904/DTD/svg10.dtd">
<svg version="1.0" xmlns="http://www.w3.org/2000/svg"
 width="1200.000000pt" height="1200.000000pt" viewBox="0 0 1200.000000 1200.000000"
 preserveAspectRatio="xMidYMid meet">
<metadata>
Created by potrace 1.14, written by Peter Selinger 2001-2017
</metadata>
<g transform="translate(0.000000,1200.000000) scale(0.100000,-0.100000)"
fill="#000000" stroke="none">
<path d="M5689 11996 c-2 -2 -51 -6 -109 -10 -58 -3 -125 -8 -150 -11 -203
-23 -313 -37 -360 -45 -30 -5 -71 -12 -90 -15 -39 -6 -189 -35 -205 -39 -5 -2
-28 -6 -50 -10 -311 -60 -833 -231 -1153 -377 -35 -16 -65 -29 -68 -29 -26 0
-489 -248 -641 -343 -38 -24 -97 -60 -131 -82 -101 -63 -314 -217 -456 -329
-607 -479 -1130 -1092 -1516 -1776 -52 -94 -221 -431 -252 -505 -195 -466
-309 -823 -387 -1215 -12 -58 -23 -116 -26 -130 -3 -14 -7 -38 -9 -55 -3 -16
-7 -43 -10 -60 -3 -16 -7 -50 -11 -75 -3 -25 -8 -56 -10 -70 -3 -14 -7 -43 -9
-65 -8 -69 -17 -149 -21 -185 -26 -234 -27 -985 -1 -1126 2 -10 7 -54 11 -97
3 -43 8 -88 10 -100 2 -12 6 -44 10 -72 3 -27 8 -57 10 -65 2 -8 6 -35 9 -60
3 -25 8 -55 10 -66 2 -12 7 -38 10 -59 24 -150 86 -408 153 -635 41 -140 130
-405 153 -455 5 -11 23 -54 39 -95 99 -253 311 -669 461 -905 8 -13 33 -52 54
-87 22 -35 53 -81 68 -103 16 -22 51 -71 78 -110 74 -104 78 -110 168 -226
428 -553 986 -1051 1604 -1433 59 -36 110 -66 112 -66 2 0 39 -21 82 -46 105
-62 403 -210 539 -268 61 -26 119 -51 130 -56 278 -122 924 -309 1195 -346 19
-2 42 -6 50 -9 8 -2 35 -7 60 -10 25 -3 70 -10 100 -15 30 -5 80 -12 110 -15
30 -4 66 -8 80 -10 14 -2 54 -6 90 -9 36 -3 101 -9 145 -13 169 -16 884 -8
1006 12 13 2 55 6 93 10 38 4 79 8 90 10 12 2 44 6 71 10 96 13 120 16 135 20
8 3 34 7 57 10 67 8 287 54 418 86 316 79 701 208 922 310 24 10 45 19 47 19
18 0 358 168 500 247 343 190 727 456 986 682 14 12 52 46 85 74 112 98 314
296 446 438 213 230 453 540 631 819 73 114 108 171 108 175 0 3 16 29 35 59
19 30 35 58 35 61 0 3 11 23 24 44 24 37 176 338 209 411 131 295 230 564 316
865 29 102 68 258 76 300 1 11 10 54 20 95 9 41 20 98 25 125 5 28 11 61 14
75 2 14 8 48 12 75 4 28 9 57 10 65 4 18 23 174 30 245 3 28 7 64 9 80 20 146
28 810 12 995 -12 143 -26 276 -32 320 -2 14 -9 61 -15 105 -13 94 -19 132
-35 225 -6 33 -32 161 -42 205 -2 11 -6 31 -9 45 -12 59 -69 274 -101 380 -19
63 -39 131 -45 150 -12 42 -95 276 -108 305 -5 11 -29 70 -54 131 -62 154
-200 444 -276 579 -19 34 -137 236 -165 283 -5 9 -50 78 -99 152 -443 674
-1035 1262 -1725 1715 -150 99 -433 265 -451 265 -4 0 -10 3 -12 8 -4 9 -353
178 -458 222 -340 142 -778 284 -1032 335 -16 3 -40 7 -55 10 -16 3 -35 8 -43
10 -8 2 -31 7 -50 10 -19 3 -53 10 -75 15 -22 5 -62 12 -90 16 -27 3 -59 8
-70 10 -71 14 -212 32 -390 50 -33 3 -78 8 -100 10 -49 5 -761 14 -766 10z"/>
</g>
</svg>
